<svg width="18" height="15" viewBox="0 0 18 15" fill="none" xmlns="http://www.w3.org/2000/svg">
<path fill-rule="evenodd" clip-rule="evenodd" d="M0.599609 7.49995C0.599609 7.00289 1.00255 6.59995 1.49961 6.59995L14.2651 6.59995L9.27581 1.8487C8.91752 1.50418 8.90634 0.934446 9.25086 0.576151C9.59537 0.217857 10.1651 0.206685 10.5234 0.551199L17.1234 6.8512C17.2999 7.02088 17.3996 7.25513 17.3996 7.49995C17.3996 7.74476 17.2999 7.97902 17.1234 8.1487L10.5234 14.4487C10.1651 14.7932 9.59537 14.782 9.25086 14.4237C8.90635 14.0655 8.91752 13.4957 9.27581 13.1512L14.2651 8.39995L1.49961 8.39995C1.00255 8.39995 0.599609 7.99701 0.599609 7.49995Z" fill="white"/>
</svg>
