<svg width="32" height="30" viewBox="0 0 32 30" fill="none" xmlns="http://www.w3.org/2000/svg">
<g clip-path="url(#clip0_68_499)" filter="url(#filter0_d_68_499)">
<path d="M11.5502 21.7497C20.6045 21.7497 25.5583 14.2465 25.5583 7.74162C25.5583 7.53068 25.5536 7.31505 25.5442 7.10412C26.5079 6.40722 27.3395 5.54401 28 4.55505C27.1025 4.95436 26.1496 5.21514 25.1739 5.32849C26.2013 4.71266 26.9705 3.74523 27.3391 2.60552C26.3726 3.17831 25.3156 3.58237 24.2134 3.80037C23.4708 3.01132 22.489 2.48887 21.4197 2.31381C20.3504 2.13874 19.2532 2.32081 18.2977 2.83185C17.3423 3.3429 16.5818 4.15446 16.1338 5.14107C15.6859 6.12767 15.5754 7.23437 15.8195 8.29005C13.8625 8.19185 11.9479 7.68346 10.2 6.79785C8.45203 5.91225 6.90969 4.66919 5.67297 3.14927C5.0444 4.233 4.85206 5.5154 5.13503 6.73585C5.418 7.95629 6.15506 9.0232 7.19641 9.71974C6.41463 9.69492 5.64998 9.48444 4.96563 9.10568V9.16662C4.96492 10.3039 5.3581 11.4063 6.07831 12.2865C6.79852 13.1667 7.80132 13.7703 8.91625 13.9947C8.19206 14.1929 7.43198 14.2218 6.69484 14.0791C7.00945 15.0572 7.62157 15.9126 8.44577 16.5261C9.26997 17.1395 10.2651 17.4804 11.2923 17.501C9.54842 18.8709 7.39417 19.6139 5.17656 19.6104C4.78329 19.6098 4.3904 19.5857 4 19.5382C6.25286 20.9835 8.87353 21.7511 11.5502 21.7497Z" fill="#333333"/>
</g>
<defs>
<filter id="filter0_d_68_499" x="0" y="0" width="32" height="32" filterUnits="userSpaceOnUse" color-interpolation-filters="sRGB">
<feFlood flood-opacity="0" result="BackgroundImageFix"/>
<feColorMatrix in="SourceAlpha" type="matrix" values="0 0 0 0 0 0 0 0 0 0 0 0 0 0 0 0 0 0 127 0" result="hardAlpha"/>
<feOffset dy="4"/>
<feGaussianBlur stdDeviation="2"/>
<feComposite in2="hardAlpha" operator="out"/>
<feColorMatrix type="matrix" values="0 0 0 0 0 0 0 0 0 0 0 0 0 0 0 0 0 0 0.25 0"/>
<feBlend mode="normal" in2="BackgroundImageFix" result="effect1_dropShadow_68_499"/>
<feBlend mode="normal" in="SourceGraphic" in2="effect1_dropShadow_68_499" result="shape"/>
</filter>
<clipPath id="clip0_68_499">
<rect width="24" height="24" fill="white" transform="translate(4)"/>
</clipPath>
</defs>
</svg>
